#!OML:ASF H:\ManfredETheater\Project 1\Capture day 1\Session 1\subject.ASF
:FULLY-SPECIFIED
:DEGREES
200
root 1.90601 16.5292 -45.1189 -174.19 1.98226 185.038
lowerback 11.9718 -0.727868 2.85395
upperback -2.5436 0.362356 5.62571
thorax -9.53157 0.361159 4.35965
lowerneck -21.6791 0.683428 -0.403716
upperneck 12.0299 2.13213 -5.45133
head 7.28862 0.523476 -1.46829
rclavicle -2.13694e-014 7.15625e-014
rhumerus -45.6985 -0.444986 -85.8143
rradius 98.5404
rwrist -8.3532
rhand -14.3656 10.701
rfingers 7.12502
rthumb 11.7766 -18.9479
lclavicle -2.13694e-014 7.15625e-014
lhumerus -51.5145 -13.9632 104.796
lradius 88.1685
lwrist 7.30382
lhand -22.1523 -19.3061
lfingers 7.12502
lthumb 4.26171 10.631
rfemur -25.4146 -0.147795 28.3909
rtibia 56.8662
rfoot -28.8208 -14.8656
rtoes -34.4033
lfemur -32.6453 2.34359 -13.8053
ltibia 97.5473
lfoot -5.41291 -10.0721
ltoes -5.10029
201
root 1.9233 16.5738 -45.5689 -173.863 1.55911 185.138
lowerback 11.4939 -0.606051 3.09403
upperback -2.7351 0.550176 5.61227
thorax -9.47255 0.441578 4.16601
lowerneck -21.6985 0.484455 -0.507606
upperneck 12.2314 1.89014 -5.37477
head 7.34978 0.404035 -1.45759
rclavicle -1.64991e-014 1.59028e-015
rhumerus -45.1568 0.260504 -86.4481
rradius 100.756
rwrist -9.37424
rhand -14.0236 10.6728
rfingers 7.12502
rthumb 12.1063 -18.9569
lclavicle -1.64991e-014 1.59028e-015
lhumerus -53.651 -14.8288 105.232
lradius 89.4551
lwrist 6.90205
lhand -21.5137 -19.2185
lfingers 7.12502
lthumb 4.87835 10.7053
rfemur -23.2229 -0.114918 28.587
rtibia 55.503
rfoot -29.1548 -15.6217
rtoes -34.9809
lfemur -35.3979 2.5847 -13.8829
ltibia 97.0772
lfoot -6.64696 -9.68861
ltoes -6.10704
202
root 1.93816 16.6269 -46.0248 -173.584 1.05043 185.212
lowerback 11.0164 -0.490986 3.35593
upperback -2.92766 0.725995 5.56542
thorax -9.41122 0.513179 3.92846
lowerneck -21.6999 0.235831 -0.689477
upperneck 12.4106 1.57948 -5.18427
head 7.39733 0.258938 -1.40518
rclavicle -4.47266e-015 5.08889e-014
rhumerus -44.7352 0.975988 -87.0307
rradius 103.033
rwrist -10.3365
rhand -13.737 10.6396
rfingers 7.12502
rthumb 12.3827 -18.9736
lclavicle -4.47266e-015 5.08889e-014
lhumerus -55.8233 -15.7153 105.687
lradius 90.9176
lwrist 6.91479
lhand -20.8376 -19.0585
lfingers 7.12502
lthumb 5.53116 10.8493
rfemur -20.9075 -0.146511 28.7758
rtibia 53.9534
rfoot -29.1552 -16.2592
rtoes -35.683
lfemur -37.97 2.66478 -14.0524
ltibia 96.2214
lfoot -7.8129 -9.30284
ltoes -6.9698
203
root 1.95026 16.6896 -46.486 -173.381 0.499382 185.283
lowerback 10.5927 -0.371691 3.64533
upperback -3.12451 0.911574 5.49506
thorax -9.38332 0.586944 3.65151
lowerneck -21.663 -0.0585134 -0.948735
upperneck 12.5833 1.20752 -4.89172
head 7.43475 0.0906396 -1.31402
rclavicle 1.68967e-015 -1.11319e-014
rhumerus -44.4418 1.69263 -87.5466
rradius 105.315
rwrist -11.1066
rhand -13.4964 10.621
rfingers 7.12502
rthumb 12.6146 -18.9781
lclavicle 1.68967e-015 -1.11319e-014
lhumerus -58.0023 -16.5548 106.141
lradius 92.4534
lwrist 7.37372
lhand -20.0629 -18.83
lfingers 7.12502
lthumb 6.27905 11.057
rfemur -18.4573 -0.203178 28.9756
rtibia 52.234
rfoot -28.8208 -16.736
rtoes -36.7301
lfemur -40.3034 2.62579 -14.2681
ltibia 94.9737
lfoot -8.90477 -8.95026
ltoes -7.72551
204
root 1.95839 16.7637 -46.9529 -173.299 -0.0885102 185.348
lowerback 10.2634 -0.252647 3.97048
upperback -3.3025 1.10328 5.40231
thorax -9.38671 0.66008 3.332
lowerneck -21.6017 -0.385414 -1.25993
upperneck 12.7522 0.793175 -4.53848
head 7.46765 -0.0944112 -1.19951
rclavicle 3.37934e-015 -7.95139e-015
rhumerus -44.2492 2.41165 -87.9919
rradius 107.567
rwrist -11.6524
rhand -13.2873 10.6376
rfingers 7.12502
rthumb 12.8163 -18.949
lclavicle 3.37934e-015 -7.95139e-015
lhumerus -60.1337 -17.2967 106.561
lradius 93.9895
lwrist 8.2021
lhand -19.2168 -18.5534
lfingers 7.12502
lthumb 7.0959 11.3077
rfemur -15.8384 -0.302864 29.1684
rtibia 50.3607
rfoot -28.0861 -16.9939
rtoes -38.0249
lfemur -42.3053 2.46126 -14.5175
ltibia 93.3164
lfoot -9.9404 -8.629
ltoes -8.4642
205
root 1.96184 16.8488 -47.4251 -173.343 -0.684822 185.409
lowerback 10.0468 0.383184 4.41784
upperback -3.51213 1.18772 5.26775
thorax -9.45501 0.324819 2.9791
lowerneck -21.5124 -0.593083 -1.66206
upperneck 12.9397 0.320343 -4.12651
head 7.50326 -0.397493 -1.07005
rclavicle -1.2921e-015 -5.88403e-014
rhumerus -44.1577 3.15057 -88.3722
rradius 109.757
rwrist -11.9914
rhand -13.1069 10.7097
rfingers 7.12502
rthumb 12.9901 -18.8659
lclavicle -1.2921e-015 -5.88403e-014
lhumerus -62.203 -17.8892 106.92
lradius 95.475
lwrist 9.24904
lhand -18.3251 -18.2387
lfingers 7.12502
lthumb 7.95658 11.5916
rfemur -13.074 -0.440564 29.3347
rtibia 48.3642
rfoot -26.9228 -16.9483
rtoes -39.3544
lfemur -43.9384 2.2127 -14.7917
ltibia 91.2531
lfoot -10.9412 -8.34336
ltoes -9.2168
206
root 1.96033 16.9437 -47.9027 -173.501 -1.27486 185.465
lowerback 9.92536 0.497151 4.79817
upperback -3.64953 1.38463 5.14962
thorax -9.527 0.392003 2.60494
lowerneck -21.4249 -0.940955 -2.01788
upperneck 13.1362 -0.0986953 -3.74795
head 7.54759 -0.575389 -0.939367
rclavicle -2.33572e-015 4.13472e-014
rhumerus -44.1445 3.93744 -88.6951
rradius 111.866
rwrist -12.1772
rhand -12.942 10.8331
rfingers 7.12502
rthumb 13.1491 -18.7323
lclavicle -2.33572e-015 4.13472e-014
lhumerus -64.1806 -18.2937 107.186
lradius 96.8658
lwrist 10.3321
lhand -17.4029 -17.9016
lfingers 7.12502
lthumb 8.84658 11.893
rfemur -10.205 -0.620243 29.4553
rtibia 46.2756
rfoot -25.3595 -16.5281
rtoes -40.6366
lfemur -45.2 1.90818 -15.0818
ltibia 88.7962
lfoot -11.9325 -8.06862
ltoes -10.2596
207
root 1.95426 17.0464 -48.3847 -173.712 -1.81683 185.516
lowerback 9.84601 0.614427 5.17782
upperback -3.77985 1.58823 5.03307
thorax -9.61308 0.461336 2.23271
lowerneck -21.327 -1.26723 -2.37562
upperneck 13.3492 -0.486006 -3.39925
head 7.5994 -0.742492 -0.814576
rclavicle -1.54058e-015 7.63333e-014
rhumerus -44.2053 4.78852 -88.9702
rradius 113.88
rwrist -12.2721
rhand -12.8044 10.9933
rfingers 7.12502
rthumb 13.2817 -18.5635
lclavicle -1.54058e-015 7.63333e-014
lhumerus -66.0574 -18.4917 107.346
lradius 98.1211
lwrist 11.2778
lhand -16.5161 -17.5786
lfingers 7.12502
lthumb 9.70226 12.178
rfemur -7.32813 -0.811788 29.5081
rtibia 44.1333
rfoot -23.4091 -15.6814
rtoes -41.7117
lfemur -46.1507 1.61015 -15.3865
ltibia 85.9707
lfoot -12.8688 -7.80136
ltoes -11.4955
208
root 1.94437 17.1567 -48.8717 -173.919 -2.30484 185.559
lowerback 9.74694 0.733741 5.54047
upperback -3.90987 1.7894 4.92492
thorax -9.68485 0.529598 1.88027
lowerneck -21.2491 -1.56004 -2.72278
upperneck 13.5879 -0.825334 -3.09545
head 7.66624 -0.892518 -0.701089
rclavicle 1.84373e-014 1.10524e-013
rhumerus -44.3143 5.71002 -89.2037
rradius 115.787
rwrist -12.3412
rhand -12.6399 11.1672
rfingers 7.12502
rthumb 13.4403 -18.3792
lclavicle 1.84373e-014 1.10524e-013
lhumerus -67.814 -18.4707 107.386
lradius 99.2216
lwrist 12.0164
lhand -15.6223 -17.2637
lfingers 7.12502
lthumb 10.5646 12.4508
rfemur -4.52126 -1.00927 29.48
rtibia 41.9544
rfoot -21.0851 -14.3955
rtoes -42.3957
lfemur -46.8462 1.33847 -15.6982
ltibia 82.7957
lfoot -13.7986 -7.48081
ltoes -13.201
209
root 1.93171 17.271 -49.3632 -174.092 -2.7295 185.589
lowerback 9.59203 0.859155 5.85926
upperback -4.04332 1.98658 4.82989
thorax -9.72621 0.598232 1.56831
lowerneck -21.1973 -1.81606 -3.05824
upperneck 13.8504 -1.11161 -2.83867
head 7.74775 -1.02321 -0.599256
rclavicle -8.69683e-015 3.89618e-014
rhumerus -44.4552 6.68914 -89.4039
rradius 117.583
rwrist -12.4376
rhand -12.4203 11.3159
rfingers 7.12502
rthumb 13.6519 -18.2164
lclavicle -8.69683e-015 3.89618e-014
lhumerus -69.4462 -18.2432 107.306
lradius 100.153
lwrist 12.5433
lhand -14.8162 -16.9696
lfingers 7.12502
lthumb 11.342 12.7037
rfemur -1.93758 -1.19724 29.361
rtibia 39.9926
rfoot -18.5159 -12.7676
rtoes -42.5884
lfemur -47.3389 1.13259 -16.021
ltibia 79.3404
lfoot -14.6919 -7.10402
ltoes -15.1938
210
root 1.91682 17.388 -49.8601 -174.201 -3.11615 185.599
lowerback 9.34231 0.979252 6.11923
upperback -4.18293 2.15818 4.75139
thorax -9.71858 0.658463 1.3133
lowerneck -21.1969 -2.02845 -3.37027
upperneck 14.1448 -1.33636 -2.63121
head 7.85012 -1.13036 -0.511037
rclavicle -4.42296e-015 -5.32743e-014
rhumerus -44.6064 7.72649 -89.5877
rradius 119.257
rwrist -12.5814
rhand -12.1491 11.4071
rfingers 7.12502
rthumb 13.9133 -18.1074
lclavicle -4.42296e-015 -5.32743e-014
lhumerus -70.9477 -17.8242 107.107
lradius 100.913
lwrist 12.9298
lhand -14.1401 -16.6715
lfingers 7.12502
lthumb 11.9941 12.9648
rfemur 0.513632 -1.39076 29.1493
rtibia 37.9531
rfoot -15.4986 -10.8701
rtoes -42.2622
lfemur -47.6427 0.950486 -16.3449
ltibia 75.5414
lfoot -15.3415 -6.73251
ltoes -16.792
211
root 1.90242 17.4424 -50.3324 -174.246 -3.55897 185.565
lowerback 9.08758 1.12517 6.35376
upperback -4.34854 2.36087 4.65667
thorax -9.73408 0.733915 1.05161
lowerneck -21.0917 -2.26158 -3.74727
upperneck 14.3566 -1.58127 -2.41974
head 7.90953 -1.249 -0.411867
rclavicle 1.50082e-014 -7.4743e-014
rhumerus -44.8134 8.83702 -89.7187
rradius 121.117
rwrist -12.3636
rhand -12.1485 11.68
rfingers 7.12502
rthumb 13.9139 -17.8345
lclavicle 1.50082e-014 -7.4743e-014
lhumerus -72.5821 -17.7026 106.928
lradius 101.856
lwrist 12.8552
lhand -13.5612 -16.7103
lfingers 7.12502
lthumb 12.5522 12.8927
rfemur 2.99681 -1.5816 28.9849
rtibia 36.0291
rfoot -12.2152 -9.33619
rtoes -41.6672
lfemur -47.9789 0.834853 -16.8187
ltibia 71.6119
lfoot -15.7238 -6.93675
ltoes -17.8883
212
root 1.88419 17.587 -50.8472 -174.234 -3.8151 185.48
lowerback 8.71106 1.2458 6.47283
upperback -4.57778 2.50271 4.56279
thorax -9.75147 0.785129 0.86954
lowerneck -21.0533 -2.40964 -4.02449
upperneck 14.744 -1.72718 -2.24656
head 8.03882 -1.32347 -0.331418
rclavicle 3.37623e-015 4.77083e-014
rhumerus -45.1565 9.9478 -89.9554
rradius 122.572
rwrist -12.6681
rhand -11.6562 11.4392
rfingers 7.12502
rthumb 14.3883 -18.0421
lclavicle 3.37623e-015 4.77083e-014
lhumerus -73.9947 -16.8093 106.509
lradius 102.291
lwrist 13.0035
lhand -12.0561 -16.2939
lfingers 7.12502
lthumb 14.003 13.2145
rfemur 5.19992 -1.75102 28.4873
rtibia 33.8254
rfoot -8.35067 -7.02208
rtoes -40.4068
lfemur -47.7663 0.774762 -17.2396
ltibia 67.166
lfoot -17.171 -5.53146
ltoes -23.3398
